<svg width="85" height="96" viewBox="0 0 85 96" fill="none" xmlns="http://www.w3.org/2000/svg">
<path d="M41.3632 96C39.6799 95.6197 38.06 95.0961 36.7617 93.887C34.2637 91.5534 33.3105 88.722 34.2144 85.4023C35.1535 81.9465 37.5012 79.8406 41.0345 79.2982C44.9506 78.6972 48.3313 80.5872 49.9559 84.1393C50.1719 84.6088 50.4043 84.7779 50.9232 84.7732C53.6395 84.745 56.3582 84.7872 59.0769 84.752C62.6853 84.7051 65.7843 82.5992 66.977 79.4438C67.0189 79.3295 67.0534 79.2127 67.0803 79.094C65.6341 79.0165 64.1386 79.1597 62.7604 78.8216C58.8937 77.8826 56.4216 74.7296 56.377 70.7196C56.3081 63.0958 56.3081 55.4735 56.377 47.8527C56.3663 45.9285 57.0169 44.0589 58.22 42.5571C59.4231 41.0552 61.1056 40.0123 62.9858 39.6028C66.9065 38.7576 70.7099 40.6945 72.4918 44.4063C72.5689 44.5542 72.6773 44.6835 72.8095 44.7853C72.9417 44.8871 73.0944 44.9588 73.2572 44.9955C75.0837 45.1129 76.9173 45.1599 78.8471 45.2303C79.3542 31.3998 74.4287 19.8748 62.7182 12.0264C50.4067 3.77877 37.2711 3.28576 24.2882 10.5097C10.6033 18.1164 4.8842 32.2168 5.81155 45.2256C7.67565 45.1528 9.53739 45.1035 11.3921 44.9908C11.5425 44.9563 11.6835 44.8892 11.8052 44.7943C11.9269 44.6994 12.0263 44.5789 12.0964 44.4415C14.1084 40.2719 18.2451 38.5017 22.6448 39.9104C25.8682 40.9598 28.1925 44.1081 28.2206 47.794C28.2832 55.4179 28.2832 63.0402 28.2206 70.6609C28.1878 74.753 25.4292 78.0868 21.6165 78.9132C17.7028 79.7631 13.869 77.8309 12.1387 74.098C11.918 73.6285 11.6691 73.4993 11.1597 73.4806C9.60313 73.4289 7.99494 73.5369 6.50882 73.1707C2.62802 72.2128 0.169954 69.0739 0.146477 65.0522C0.0924788 56.807 -0.198643 48.5406 0.230992 40.3165C1.01044 25.3474 8.04188 13.8411 20.7948 5.96686C27.9178 1.56721 35.7991 -0.487055 44.1336 0.09753C61.6641 1.32539 74.0789 10.1364 81.27 26.1573C83.6177 31.3764 84.4981 36.9569 84.4817 42.6713C84.4629 49.9493 84.4629 57.2272 84.4817 64.5052C84.4817 67.461 83.4839 69.9331 81.1009 71.7691C79.5561 72.9594 77.7836 73.4524 75.8631 73.49C75.025 73.5087 74.1845 73.49 73.2313 73.49C73.2313 74.3821 73.2313 75.2155 73.2313 76.0466C73.1961 83.0006 68.7284 88.6234 61.9974 90.0321C60.5465 90.3349 59.0205 90.3138 57.5367 90.349C55.351 90.396 53.1629 90.349 50.9772 90.3842C50.6602 90.3842 50.1813 90.619 50.0592 90.8796C48.7891 93.5936 46.7043 95.2393 43.779 95.8404C43.6613 95.8772 43.5473 95.9251 43.4386 95.9836L41.3632 96ZM22.6189 59.3543C22.6189 55.5979 22.6189 51.8556 22.6189 48.1086C22.6189 46.7915 22.1095 45.7891 20.8957 45.2514C19.0363 44.425 17.0219 45.7961 17.0032 47.9208C16.9703 51.5434 17.0032 55.1683 17.0032 58.7908C17.0032 62.6646 17.0032 66.5383 17.0032 70.4121C17.0032 71.7268 17.5126 72.7316 18.7264 73.2693C20.621 74.1074 22.6095 72.7011 22.6236 70.506C22.6448 66.7895 22.6189 63.0707 22.6189 59.3543ZM67.6062 59.2557C67.6062 55.5392 67.6062 51.8204 67.6062 48.1039C67.6062 46.7892 67.092 45.7867 65.8782 45.2491C63.9836 44.4133 61.9974 45.8219 61.9857 48.0171C61.9646 51.7734 61.9857 55.5157 61.9857 59.2627C61.9857 63.0097 61.9857 66.698 61.9857 70.4144C61.9857 71.7315 62.4975 72.734 63.7136 73.2693C65.6082 74.1074 67.5921 72.6964 67.6062 70.5013C67.6226 66.752 67.6062 63.005 67.6062 59.2557ZM11.3311 50.6371C10.9906 50.6371 10.7183 50.6371 10.4436 50.6371C9.7393 50.6371 9.00445 50.6019 8.29309 50.6653C7.61419 50.7135 6.97812 51.0148 6.51074 51.5095C6.04337 52.0043 5.77875 52.6565 5.76928 53.337C5.73172 57.2969 5.73172 61.2583 5.76928 65.2212C5.77609 65.8708 6.02143 66.4953 6.45864 66.9758C6.89585 67.4563 7.49441 67.7593 8.14048 67.8272C9.18053 67.9305 10.2394 67.8484 11.3264 67.8484L11.3311 50.6371ZM73.2618 67.8742C74.2901 67.8742 75.2245 67.9117 76.1542 67.8742C76.867 67.8619 77.5465 67.5709 78.0472 67.0636C78.548 66.5563 78.8301 65.873 78.833 65.1602C78.8721 61.2301 78.8721 57.3008 78.833 53.3723C78.8445 52.7379 78.6247 52.1209 78.2148 51.6367C77.8048 51.1524 77.2326 50.8338 76.605 50.7404C75.5157 50.5996 74.3935 50.7099 73.2595 50.7099L73.2618 67.8742ZM45.1055 87.5435C45.0962 86.8024 44.7953 86.0948 44.268 85.5741C43.7407 85.0533 43.0294 84.7614 42.2882 84.7614C41.5481 84.7737 40.8423 85.0756 40.3222 85.6022C39.8021 86.1289 39.5091 86.8385 39.5062 87.5787C39.5191 88.3186 39.8211 89.0241 40.3477 89.5441C40.8742 90.064 41.5834 90.3572 42.3235 90.3608C43.0634 90.3479 43.7688 90.0458 44.2888 89.5193C44.8088 88.9927 45.1019 88.2835 45.1055 87.5435Z" fill="url(#paint0_linear_5235_261)"/>
<defs>
<linearGradient id="paint0_linear_5235_261" x1="-6.64464" y1="55.0112" x2="90.6519" y2="55.0112" gradientUnits="userSpaceOnUse">
<stop stop-color="#593F2C"/>
<stop offset="1" stop-color="#CD9E68"/>
</linearGradient>
</defs>
</svg>
