<svg width="96" height="96" viewBox="0 0 96 96" fill="none" xmlns="http://www.w3.org/2000/svg">
<path d="M51.386 0C53.1924 0.485424 54.9803 0.997381 56.5028 2.16187C59.4711 4.43249 61.0122 7.42196 61.1343 11.1568C61.1528 11.751 61.0308 12.3717 61.1714 12.9314C61.2908 13.4142 61.5931 14.0481 61.9884 14.2179C62.3836 14.3877 63.0972 14.2179 63.4765 13.9288C64.4182 13.2179 65.1874 12.2735 66.1291 11.5733C70.3255 8.46707 76.2938 8.74295 80.1162 12.3133C81.8404 13.9235 83.6017 15.6052 84.8909 17.5575C87.6734 21.8016 86.9758 27.335 83.5115 31.0539C83.0446 31.5579 82.4505 31.9743 82.095 32.542C81.8298 32.9532 81.6335 33.6375 81.8006 34.0301C81.9677 34.4227 82.5964 34.7781 83.0844 34.8471C84.5911 35.062 86.1615 34.9479 87.631 35.2927C92.4057 36.4148 95.9628 40.8977 95.992 45.7943C96.0052 48.126 96.0556 50.5213 95.5675 52.776C94.5357 57.5665 89.9652 61.0335 85.0606 61.1263C83.7608 61.1502 82.5168 61.1581 81.2515 61.7523C79.583 62.5481 77.5803 61.5985 76.7421 59.9433C76.3304 59.1429 76.2234 58.2202 76.441 57.3468C76.6586 56.4734 77.1861 55.7088 77.9252 55.1951C79.2825 54.2272 80.898 53.6868 82.5645 53.6434C83.3444 53.6168 84.1269 53.6434 84.9094 53.6221C85.8563 53.592 86.7559 53.2012 87.4241 52.5295C88.0922 51.8579 88.4785 50.9563 88.5037 50.0093C88.5461 48.6989 88.5408 47.3832 88.5037 46.0729C88.4506 43.9959 86.8617 42.4733 84.7901 42.3778C83.363 42.3115 81.8722 42.3778 80.522 42.0038C74.177 40.2955 71.9913 32.2847 76.5007 27.5021C76.9729 27.0034 77.4795 26.5365 77.9517 26.0378C79.4743 24.4224 79.4769 22.2526 77.9517 20.6557C77.132 19.799 76.2885 18.9634 75.4344 18.1358C73.7712 16.523 71.5749 16.5097 69.9329 18.1702C68.4236 19.6955 66.8798 21.0881 64.7126 21.6584C59.235 23.0696 53.7574 18.9422 53.6592 13.2842C53.6592 12.5972 53.6592 11.9101 53.6592 11.2231C53.6537 10.2399 53.2606 9.29857 52.5654 8.60334C51.8702 7.9081 50.9288 7.51507 49.9456 7.5095C48.6671 7.48032 47.3832 7.48032 46.102 7.5095C44.0277 7.55725 42.4945 9.14615 42.3884 11.2231C42.3221 12.6529 42.3884 14.141 42.017 15.4911C40.3273 21.799 32.3802 24.0272 27.5896 19.5947C27.0405 19.0854 26.5286 18.5337 25.998 18.0191C24.4436 16.5734 22.2844 16.5601 20.7592 18.0191C19.8272 18.9033 18.9218 19.8087 18.0429 20.7353C16.592 22.2738 16.6052 24.4251 18.0429 25.9742C18.5549 26.5233 19.1252 27.0193 19.6159 27.5817C22.0616 30.3934 22.6531 33.5765 21.2075 36.9957C19.7618 40.4149 17.0402 42.1868 13.324 42.3805C12.6369 42.4149 11.9473 42.3805 11.2602 42.3805C10.2802 42.386 9.34167 42.7765 8.64695 43.4677C7.95224 44.1589 7.55703 45.0955 7.54661 46.0755C7.51743 47.3541 7.51743 48.6379 7.54661 49.9191C7.55898 50.9002 7.95421 51.8376 8.64799 52.5314C9.34177 53.2251 10.2792 53.6204 11.2602 53.6327C12.6263 53.6937 14.0428 53.6142 15.3505 53.9431C21.8627 55.5824 24.1465 63.6861 19.5231 68.5642C19.0509 69.0629 18.5416 69.5271 18.0721 70.0311C16.6238 71.5775 16.6026 73.7288 18.0456 75.2699C18.9236 76.201 19.8334 77.1082 20.7645 77.9862C22.303 79.4398 24.4489 79.4345 26.006 77.9862C26.5551 77.4769 27.0484 76.9039 27.5975 76.4132C30.404 73.9649 33.5845 73.3654 37.0063 74.8216C40.4281 76.2779 42.2054 78.9756 42.4043 82.6945C42.4388 83.3497 42.4043 84.0208 42.4043 84.6654C42.4388 86.8591 43.9959 88.4533 46.1816 88.4931C47.3991 88.5143 48.6193 88.5117 49.8369 88.4931C52.0253 88.4586 53.5691 86.8803 53.6619 84.6999C53.6796 83.2692 53.81 81.8421 54.0518 80.4319C54.289 79.5054 54.7014 78.6329 55.2667 77.8615C55.7853 77.1241 56.5592 76.6055 57.4384 76.406C58.3175 76.2066 59.2394 76.3405 60.0255 76.7819C61.6595 77.6652 62.5162 79.6679 61.7258 81.3417C61.1953 82.4797 61.1342 83.5964 61.1263 84.7901C61.1314 87.1197 60.4072 89.3924 59.0552 91.2896C57.7033 93.1868 55.7914 94.6131 53.5876 95.3686C52.4385 95.7663 51.2331 95.9776 50.0172 95.9946C47.8103 95.9946 45.5423 96.0768 43.407 95.6179C38.3989 94.5383 34.9187 89.9918 34.8816 84.8776C34.8816 84.2516 34.9797 83.6044 34.8444 83.0208C34.7383 82.5645 34.4147 81.9863 34.0327 81.8218C33.6507 81.6574 33.0088 81.8218 32.6083 82.0526C32.1122 82.3444 31.7515 82.8643 31.3271 83.2781C26.754 87.7239 19.8759 87.7106 15.3214 83.2383C14.3187 82.2542 13.3054 81.2727 12.3637 80.2329C10.4757 78.1712 9.43044 75.4759 9.43486 72.6803C9.43928 69.8847 10.493 67.1927 12.3876 65.137C12.8916 64.5826 13.5176 64.1211 13.9261 63.5057C14.1914 63.0998 14.3876 62.4075 14.2179 62.0149C14.0481 61.6223 13.4221 61.2695 12.934 61.1953C11.2788 60.9433 9.52545 61.0759 7.94981 60.5984C3.70566 59.3172 1.1804 56.3251 0.193634 52.0173C0.145887 51.8104 0.0636622 51.6141 0 51.4125V44.6298C0.0636622 44.4282 0.145887 44.232 0.193634 44.0251C1.14061 39.826 3.58894 36.8631 7.68189 35.5368C9.32915 35.0062 11.1886 35.1336 12.934 34.8577C13.4115 34.7834 14.0481 34.4333 14.2179 34.038C14.3876 33.6428 14.1861 32.977 13.9261 32.5473C13.5892 32.0168 13.0216 31.6056 12.5706 31.1308C10.9967 29.4803 9.95935 27.3919 9.59524 25.1405C9.23113 22.8891 9.55727 20.5802 10.5308 18.5178C11.6422 16.1145 13.6263 14.4513 15.4726 12.6821C20.0987 8.2814 26.7063 8.34772 31.3218 12.7616C31.7515 13.1728 32.1175 13.6927 32.6056 13.9845C33.0062 14.2205 33.6507 14.385 34.0301 14.2206C34.4094 14.0561 34.7383 13.4752 34.8444 13.0216C34.9824 12.43 34.8657 11.7802 34.8816 11.1648C34.9824 7.50419 36.489 4.55451 39.3645 2.28655C40.9215 1.05575 42.7624 0.506653 44.6298 0.00796554L51.386 0Z" fill="url(#paint0_linear_5235_262)"/>
<path d="M60.5852 66.0097C50.0464 73.1717 37.062 69.9674 30.5366 61.1369C27.4267 56.9431 25.9312 51.7695 26.3238 46.5632C26.7164 41.3569 28.9709 36.4661 32.6746 32.7861C36.385 29.0944 41.3021 26.8645 46.5238 26.5054C51.7455 26.1463 56.9216 27.6821 61.1024 30.8311C69.856 37.4626 72.8587 50.2666 65.8771 60.6383C66.0893 60.8664 66.3068 61.1157 66.5402 61.3491C71.0019 65.8135 75.4794 70.2645 79.9225 74.7474C82.0446 76.8986 81.2144 80.3178 78.3814 81.0924C76.8959 81.4956 75.6307 81.0499 74.5458 79.9597C70.1354 75.5387 65.7144 71.1178 61.2828 66.6968C61.0732 66.4554 60.8213 66.2326 60.5852 66.0097ZM48.0225 62.4447C51.8003 62.4341 55.42 60.9269 58.0888 58.2531C60.7576 55.5793 62.2581 51.9568 62.2616 48.179C62.2525 44.4015 60.746 40.7817 58.0724 38.1131C55.3988 35.4444 51.7761 33.9447 47.9986 33.9426C44.2206 33.951 40.6001 35.4572 37.9309 38.1309C35.2617 40.8046 33.7616 44.4276 33.7595 48.2056C33.7693 51.9831 35.2759 55.6028 37.9493 58.2717C40.6227 60.9406 44.2449 62.4412 48.0225 62.4447Z" fill="url(#paint1_linear_5235_262)"/>
<defs>
<linearGradient id="paint0_linear_5235_262" x1="-7.55056" y1="55.0114" x2="103.011" y2="55.0114" gradientUnits="userSpaceOnUse">
<stop stop-color="#593F2C"/>
<stop offset="1" stop-color="#CD9E68"/>
</linearGradient>
<linearGradient id="paint1_linear_5235_262" x1="-7.55056" y1="55.0114" x2="103.011" y2="55.0114" gradientUnits="userSpaceOnUse">
<stop stop-color="#593F2C"/>
<stop offset="1" stop-color="#CD9E68"/>
</linearGradient>
</defs>
</svg>
