<svg width="480" height="208" viewBox="0 0 480 208" fill="none" xmlns="http://www.w3.org/2000/svg">
<g opacity="0.2">
<path d="M395.203 57.698C363.382 30.7221 324.42 11.9345 281.545 4.51953L367.34 83.2864L395.203 57.698Z" fill="url(#paint0_linear_5235_219)"/>
<path d="M244.972 192.735L265.784 173.629C268.036 171.56 271.47 171.56 273.7 173.629L346.507 240.478H329.175L269.742 185.912L244.972 208.657V192.735ZM358.221 287.924C324.876 308.895 295.444 315.924 270.992 315.924C261.554 315.924 252.865 314.855 244.972 313.172V301.595C270.856 307.69 307.227 306.143 351.99 277.985C399.914 247.824 445.268 246.573 479.636 253.443C479.864 249.144 480 244.822 480 240.455C480 225.216 478.521 210.34 475.792 195.897L464.874 185.889L405.44 240.455H388.108L460.916 173.606C463.168 171.537 466.602 171.537 468.832 173.606L471.038 175.631C467.126 161.688 462.031 148.269 455.776 135.463L371.277 213.047C369.025 215.116 365.59 215.116 363.339 213.047L269.742 127.115L244.972 149.86V133.939L265.784 114.833C268.036 112.763 271.47 112.763 273.7 114.833L367.296 200.764L450.158 124.681C444.972 115.31 439.194 106.303 432.825 97.751L371.255 154.273C369.002 156.343 365.567 156.343 363.316 154.273L269.719 68.3414L244.949 91.0866V75.1649L265.761 56.0589C268.013 53.989 271.448 53.989 273.677 56.0589L367.273 141.99L425.571 88.4709C418.883 80.328 411.627 72.6629 403.938 65.4754L371.232 95.4992C368.979 97.5691 365.546 97.5691 363.293 95.4992L269.696 9.56762L244.926 32.3128V16.3912L260.825 1.81141C254.093 1.24278 247.292 0.878906 240.401 0.878906C207.238 0.878906 175.622 7.63416 146.917 19.8256H235.897V32.5858H121.374C100.108 44.7774 80.9107 60.1303 64.3975 78.0081H235.897V90.7909H53.4343C42.2436 104.757 32.5768 119.951 24.6843 136.213H235.897V148.996H18.9979C13.0159 163.485 8.42132 178.678 5.35071 194.419H235.897V207.202H3.23542C1.71147 218.073 0.892578 229.173 0.892578 240.455C0.892578 308.509 29.3243 369.876 74.8831 413.501C70.698 401.219 63.1237 388.617 52.0241 375.813C0.665222 316.515 28.6646 262.222 44.1769 240.478H58.9386C49.4993 251.123 6.78373 305.665 60.8721 368.147C77.9992 387.935 87.6432 407.588 89.895 426.784C100.585 435.428 112.026 443.184 124.127 449.893C124.763 447.437 125.241 444.867 125.537 442.183C127.925 421.144 119.054 398.83 99.1295 375.834C47.7934 316.538 75.7702 262.245 91.2825 240.501H106.044C96.6049 251.145 53.9118 305.688 107.977 368.17C130.176 393.804 139.98 419.21 137.137 443.706C136.659 447.892 135.772 451.781 134.68 455.489C144.029 460.106 153.763 464.086 163.749 467.475C167.889 460.674 171.506 452.213 172.642 442.228C175.031 421.189 166.16 398.876 146.235 375.88C94.8763 316.584 122.876 262.29 138.388 240.545H153.149C143.711 251.19 100.994 305.734 155.083 368.215C177.282 393.85 187.085 419.256 184.243 443.752C182.991 454.42 179.466 463.541 175.258 471.069C184.538 473.685 194.022 475.823 203.713 477.302C210.195 469.772 217.952 457.855 219.748 442.251C222.136 421.211 213.266 398.899 193.364 375.903C142.005 316.606 170.004 262.313 185.516 240.568H200.278C190.838 251.213 148.123 305.757 202.212 368.238C224.411 393.871 234.214 419.3 231.37 443.775C229.641 458.536 223.592 470.342 217.359 479.007C224.934 479.735 232.598 480.122 240.378 480.122C311.047 480.122 374.552 449.507 418.405 400.832C399.459 404.312 379.146 411.591 358.175 424.806C324.832 445.777 295.398 452.805 270.948 452.805C261.508 452.805 252.819 451.736 244.926 450.052V438.498C270.811 444.594 307.181 443.046 351.944 414.888C379.079 397.83 405.395 390.028 429.369 387.709C437.897 376.767 445.495 365.099 452.046 352.771C424.569 351.747 392.249 357.776 358.175 379.202C324.832 400.173 295.398 407.223 270.948 407.223C261.508 407.223 252.819 406.155 244.926 404.471V392.917C270.811 399.012 307.181 397.465 351.944 369.307C390.201 345.243 426.821 339.624 457.527 341.808C462.463 331.232 466.648 320.246 470.014 308.895C439.194 304.187 400.004 307.327 358.175 333.642C324.832 354.614 295.398 361.641 270.948 361.641C261.508 361.641 252.819 360.572 244.926 358.889V347.335C270.811 353.431 307.181 351.884 351.944 323.725C396.866 295.475 439.513 292.61 472.971 298.001C475.609 287.219 477.588 276.187 478.726 264.884C446.769 258.219 404.076 259.175 358.198 288.039" fill="url(#paint1_linear_5235_219)"/>
</g>
<defs>
<linearGradient id="paint0_linear_5235_219" x1="-36.79" y1="275.502" x2="514.991" y2="275.502" gradientUnits="userSpaceOnUse">
<stop stop-color="#593F2C"/>
<stop offset="1" stop-color="#CD9E68"/>
</linearGradient>
<linearGradient id="paint1_linear_5235_219" x1="-36.79" y1="275.502" x2="514.991" y2="275.502" gradientUnits="userSpaceOnUse">
<stop stop-color="#593F2C"/>
<stop offset="1" stop-color="#CD9E68"/>
</linearGradient>
</defs>
</svg>
