<svg width="96" height="97" viewBox="0 0 96 97" fill="none" xmlns="http://www.w3.org/2000/svg">
<path d="M55.8593 0C56.1097 1.00183 56.3377 2.00365 56.6107 2.97542C57.1667 4.95653 57.7252 6.94015 58.3463 8.90122C58.4989 9.27682 58.7905 9.57913 59.1603 9.74526C61.7625 10.8623 64.3973 11.9067 66.9946 13.0363C67.5105 13.2592 67.8712 13.3017 68.3646 13.0363C71.0269 11.5335 73.7093 10.0834 76.3065 8.65577L87.3266 19.6909C85.9165 22.2581 84.4789 24.9179 82.9962 27.5502C82.6832 28.1062 82.7207 28.5044 82.9787 29.0855C84.0757 31.5625 85.1226 34.0646 86.0969 36.5992C86.3473 37.2654 86.6629 37.5735 87.3492 37.7563C89.9664 38.4701 92.5611 39.259 95.1759 39.9979C95.787 40.1682 96.0049 40.4211 95.9999 41.0849C95.9649 45.7116 95.9649 50.3367 95.9999 54.9601C95.9999 55.6264 95.7845 55.8793 95.1759 56.0471C92.5311 56.7835 89.9038 57.5824 87.259 58.3137C86.994 58.3681 86.7493 58.4947 86.5517 58.6794C86.3541 58.8642 86.2115 59.0999 86.1395 59.3607C85.1376 61.9429 84.0557 64.4975 82.9436 67.0371C82.7182 67.5506 82.6932 67.9112 82.9637 68.4046C84.4664 71.067 85.914 73.7519 87.3391 76.3516L76.3191 87.3717C73.7544 85.9616 71.097 84.5215 68.4647 83.0363C67.9087 82.7257 67.508 82.7683 66.9295 83.0238C64.3948 84.1408 61.8352 85.2019 59.2505 86.2071C59.0186 86.2712 58.8085 86.3971 58.6426 86.5713C58.4767 86.7456 58.3613 86.9616 58.3087 87.1964C57.5574 89.8988 56.7384 92.5887 55.987 95.2936C55.8342 95.8346 55.6163 96.045 55.0328 96.0325C50.3459 96.0074 45.659 96.0074 40.9722 96.0325C40.4011 96.0325 40.1657 95.8597 40.0104 95.3061C39.259 92.6012 38.4526 89.9113 37.6887 87.2089C37.6374 86.9741 37.5242 86.7574 37.3608 86.5812C37.1974 86.405 36.9897 86.2758 36.7595 86.2071C34.1222 85.1702 31.5274 84.0256 28.8977 82.9737C28.4885 82.8304 28.0397 82.851 27.6454 83.0313C24.9455 84.4614 22.2781 85.9491 19.6784 87.3767L8.64325 76.3416C10.0533 73.7769 11.4909 71.1196 12.9736 68.4848C13.2817 67.9363 13.2567 67.5356 12.9987 66.9495C11.8766 64.4149 10.8598 61.8352 9.77532 59.2855C9.63506 58.9574 9.37208 58.5342 9.07904 58.444C6.18627 57.5574 3.27598 56.7309 0.368179 55.8943C0.245996 55.878 0.122183 55.878 0 55.8943V40.1306C0.122181 40.1469 0.245998 40.1469 0.368179 40.1306C3.27347 39.2941 6.18627 38.4676 9.07654 37.581C9.37207 37.4908 9.63506 37.0801 9.77281 36.7419C10.8598 34.1923 11.8766 31.6126 12.9962 29.078C13.2466 28.4944 13.2867 28.0962 12.9761 27.5427C11.4934 24.9104 10.0558 22.253 8.64074 19.6784L19.6608 8.65828C19.9388 8.80604 20.2945 8.99389 20.6451 9.18674C22.9969 10.4791 25.3387 11.7915 27.7105 13.0463C28.0848 13.2044 28.5057 13.2116 28.8851 13.0663C31.5124 12.0094 34.1071 10.8698 36.7419 9.83041C36.9744 9.76393 37.1846 9.63566 37.3499 9.45924C37.5153 9.28283 37.6298 9.06488 37.6812 8.82859C38.2246 6.87503 38.8132 4.93399 39.3617 2.98294C39.6397 1.99864 39.8626 0.99932 40.1131 0.00751338L55.8593 0ZM90.3271 44.4535C87.6973 43.6896 85.0976 42.9207 82.4853 42.1994C81.9118 42.0391 81.6287 41.7911 81.4985 41.165C80.6176 36.8728 78.9168 32.7909 76.4894 29.1431C76.3352 28.956 76.2471 28.7231 76.239 28.4808C76.2308 28.2385 76.303 28.0002 76.4443 27.8032C77.7993 25.4163 79.0991 22.9994 80.3865 20.6526L75.3423 15.6084C73.0005 16.8933 70.5836 18.1957 68.1993 19.5431C68.0031 19.6854 67.7656 19.7591 67.5233 19.7527C67.2811 19.7464 67.0477 19.6604 66.8593 19.508C63.7386 17.4443 60.4101 15.7262 56.7384 15.0174C54.5394 14.5941 53.5626 13.5772 53.1719 11.4559C52.8062 9.48478 52.0799 7.57881 51.5189 5.66532H44.4435C43.6921 8.21998 42.9082 10.7496 42.2345 13.3092C42.0241 14.1082 41.6384 14.4062 40.8845 14.5615C37.1276 15.343 33.5286 16.6353 30.3653 18.7892C28.8801 19.7911 27.8107 19.7034 26.4006 18.8043C24.5197 17.6071 22.4985 16.6253 20.7203 15.651C18.9671 17.4042 17.3241 19.0547 15.6385 20.7478C16.8732 23.0019 18.1431 25.3512 19.4705 27.6879C19.7735 28.2264 19.8311 28.6372 19.4705 29.1907C17.0689 32.7807 15.3857 36.802 14.5139 41.0323C14.3612 41.7636 14.0331 42.0491 13.3518 42.237C10.7746 42.9483 8.21497 43.7247 5.65029 44.4735V51.5439C8.2851 52.3078 10.9099 53.0817 13.5447 53.8256C13.7851 53.8666 14.0057 53.9849 14.1729 54.1625C14.3401 54.3401 14.4449 54.5674 14.4714 54.8099C15.3471 59.1012 17.0428 63.1831 19.4655 66.8318C19.6298 67.0306 19.7237 67.2781 19.7328 67.5358C19.7419 67.7935 19.6655 68.047 19.5156 68.2569C18.1631 70.6362 16.8657 73.0481 15.621 75.3147L20.6902 80.3965C22.9794 79.1442 25.3662 77.8518 27.728 76.5144C28.254 76.2164 28.6297 76.2013 29.1506 76.5445C32.7417 78.9411 36.7616 80.6224 40.9897 81.496C41.7085 81.6463 42.0191 81.9543 42.2094 82.6481C42.9157 85.2303 43.6921 87.7925 44.4635 90.3972C46.7001 90.3972 48.8866 90.4172 51.0706 90.3671C51.2985 90.3671 51.6366 89.9664 51.7217 89.6884C52.4481 87.3016 53.1318 84.9022 53.8181 82.5028C53.9508 82.0345 54.0961 81.6888 54.6821 81.5711C59.0402 80.6994 63.1855 78.9833 66.8844 76.5194C67.3702 76.1963 67.7234 76.2139 68.2243 76.4944C70.6112 77.8443 73.0231 79.1442 75.3323 80.4115L80.384 75.3423C79.1317 73.0631 77.8569 70.7038 76.5319 68.3721C76.2038 67.791 76.1588 67.3702 76.552 66.7842C78.9407 63.1862 80.6157 59.1627 81.486 54.9326C81.6312 54.2363 81.9468 53.9708 82.5955 53.793C85.1777 53.0792 87.7449 52.3078 90.3321 51.5539L90.3271 44.4535Z" fill="url(#paint0_linear_5235_263)"/>
<path d="M47.9924 21.8348C62.4237 21.8348 74.2027 33.6438 74.1526 48.035C74.1025 62.4939 62.301 74.2578 47.9298 74.1751C41.0051 74.1487 34.3722 71.3832 29.4796 66.4827C24.5871 61.5822 21.8324 54.9447 21.8172 48.02C21.7947 33.6112 33.5762 21.8248 47.9924 21.8348ZM68.5299 47.9999C68.5187 42.563 66.3565 37.3514 62.5155 33.5034C58.6745 29.6554 53.4669 27.4837 48.03 27.4625C36.7219 27.4174 27.44 36.6818 27.445 48.0125C27.4569 53.4492 29.6193 58.6604 33.4601 62.5083C37.3009 66.3561 42.5082 68.5281 47.9449 68.5499C59.2404 68.6025 68.5324 59.3281 68.5274 47.9999H68.5299Z" fill="url(#paint1_linear_5235_263)"/>
<path d="M45.0971 50.224L55.3308 39.9553L59.2053 43.8399C54.5268 48.5184 49.7782 53.2646 45.0946 57.9506L37.0324 49.8884L40.9796 45.9587L45.0971 50.224Z" fill="url(#paint2_linear_5235_263)"/>
<defs>
<linearGradient id="paint0_linear_5235_263" x1="-7.55056" y1="55.0301" x2="103.011" y2="55.0301" gradientUnits="userSpaceOnUse">
<stop stop-color="#593F2C"/>
<stop offset="1" stop-color="#CD9E68"/>
</linearGradient>
<linearGradient id="paint1_linear_5235_263" x1="-7.55056" y1="55.0301" x2="103.011" y2="55.0301" gradientUnits="userSpaceOnUse">
<stop stop-color="#593F2C"/>
<stop offset="1" stop-color="#CD9E68"/>
</linearGradient>
<linearGradient id="paint2_linear_5235_263" x1="-7.55056" y1="55.0301" x2="103.011" y2="55.0301" gradientUnits="userSpaceOnUse">
<stop stop-color="#593F2C"/>
<stop offset="1" stop-color="#CD9E68"/>
</linearGradient>
</defs>
</svg>
