<svg width="96" height="95" viewBox="0 0 96 95" fill="none" xmlns="http://www.w3.org/2000/svg">
<path d="M15.2197 48.4836C8.81778 28.5402 19.2433 12.6204 29.5378 5.99281C42.179 -2.13696 58.3269 -1.98165 70.3249 6.37624C82.323 14.7341 89.0623 30.1176 84.694 46.2922C85.274 46.4378 85.8613 46.5664 86.434 46.7339C91.2415 48.1317 94.3818 51.2744 95.5636 56.094C96.7455 60.9137 95.5394 65.3037 91.79 68.5993C85.5798 74.062 79.1706 79.3088 72.861 84.6477C70.8856 86.3158 68.9085 87.9813 66.9299 89.6445C62.882 93.0736 58.2249 94.833 52.903 94.8281C37.9749 94.8184 23.0485 94.8184 8.12372 94.8281C3.241 94.8281 0.0206278 91.6054 0.0109206 86.7348C-0.0036402 76.704 -0.0036402 66.6732 0.0109206 56.6425C0.0109206 51.7355 3.27254 48.5151 8.20136 48.4933C10.5068 48.4739 12.8099 48.4836 15.2197 48.4836ZM39.4609 65.1824C43.3754 65.4979 47.0544 65.0611 50.5247 63.0274C59.1374 57.9772 67.8254 53.0557 76.4672 48.0516C76.9207 47.7705 77.2739 47.3536 77.4767 46.8601C79.4934 41.657 79.9035 36.3108 78.9328 30.8189C76.6613 17.9229 65.236 7.52169 52.1483 6.68444C41.4436 5.98795 32.5252 9.76405 26.0335 18.3331C19.27 27.2515 18.1003 37.1505 22.0996 47.6366C22.3423 48.2749 22.6627 48.5515 23.3786 48.5103C24.5458 48.4448 25.7204 48.4909 26.8926 48.4933C34.4156 48.5103 39.7546 54.0749 39.4755 61.581C39.41 62.7653 39.4488 63.9569 39.4488 65.1824H39.4609ZM32.8479 65.26C32.8479 63.8331 32.8188 62.5299 32.8479 61.2291C32.9499 57.5695 30.642 55.1209 26.9823 55.1088C20.7455 55.0893 14.5086 55.1088 8.27175 55.1088C6.93944 55.1088 6.63609 55.4194 6.63366 56.759C6.63366 66.6878 6.63366 76.615 6.63366 86.5406C6.63366 87.9967 6.85935 88.2054 8.33242 88.2054C23.1181 88.2054 37.9046 88.2054 52.6919 88.2054C56.415 88.2551 60.0237 86.9187 62.8164 84.456C66.0878 81.6531 69.4003 78.8987 72.6935 76.1224C77.463 72.102 82.23 68.0792 86.9946 64.0539C89.0501 62.3066 89.8049 60.0691 89.089 57.4627C87.9629 53.3566 83.5073 51.6773 79.6244 53.8954C71.0498 58.8023 62.4848 63.7295 53.9295 68.677C51.3086 70.1913 48.5517 71.3076 45.5304 71.6716C44.5391 71.792 43.5416 71.8544 42.543 71.8585C37.204 71.8779 31.8651 71.8779 26.5261 71.8585C24.8031 71.8585 23.5873 71.0868 23.0776 69.7351C22.2501 67.534 23.8057 65.3159 26.2956 65.2552C28.3778 65.2188 30.4794 65.26 32.8358 65.26H32.8479Z" fill="url(#paint0_linear_5235_260)"/>
<path d="M59.3195 39.9316C59.0986 44.3508 57.395 47.2484 53.9805 49.0078C53.1627 49.4276 52.8884 49.8669 52.9564 50.7308C53.0067 51.3815 52.9585 52.036 52.8132 52.6723C52.4468 54.2424 50.9713 55.2156 49.3041 55.0748C47.7533 54.9462 46.3094 53.6576 46.4234 52.0995C46.5642 50.2164 45.875 49.2602 44.2393 48.304C41.5213 46.7121 40.2424 44.0207 40.0361 40.8756C39.9051 38.8565 41.2107 37.3082 43.1036 37.1723C44.9965 37.0364 46.4477 38.3687 46.6321 40.4121C46.7705 41.9531 47.518 42.936 48.843 43.3242C49.4105 43.4895 50.0145 43.4808 50.5769 43.2991C51.1393 43.1174 51.6343 42.7711 51.9978 42.305C52.3762 41.8281 52.599 41.2464 52.6359 40.6387C52.6728 40.031 52.522 39.4267 52.2041 38.9075C51.938 38.4607 51.5597 38.0914 51.1067 37.8359C50.6538 37.5805 50.142 37.448 49.622 37.4514C44.5257 37.2403 40.8345 33.9447 40.1138 28.9576C39.5483 25.0408 41.7422 21.0026 45.4722 19.2189C46.1687 18.884 46.4744 18.5054 46.3725 17.7385C46.327 17.2542 46.327 16.7667 46.3725 16.2825C46.4095 15.5063 46.7268 14.7699 47.2654 14.2098C47.804 13.6498 48.5275 13.3041 49.3016 13.2368C51.0586 13.0912 52.5341 14.1396 52.852 15.8456C52.9646 16.5589 52.9996 17.2822 52.9564 18.003C52.9321 18.6073 53.1578 18.8913 53.7014 19.1631C57.1329 20.8618 59.0258 23.6502 59.2248 27.4967C59.334 29.557 58.0114 31.0447 56.1185 31.1369C54.2256 31.2291 52.7962 29.8652 52.6239 27.8292C52.4516 25.7931 50.782 24.4705 48.9522 24.9388C48.2594 25.111 47.6492 25.5214 47.2286 26.0982C46.808 26.675 46.6037 27.3814 46.6516 28.0937C46.8069 29.6832 48.0421 30.7753 49.7336 30.8529C53.7839 31.035 56.7713 32.9181 58.4264 36.6239C58.9627 37.8154 59.1253 39.1817 59.3195 39.9316Z" fill="url(#paint1_linear_5235_260)"/>
<defs>
<linearGradient id="paint0_linear_5235_260" x1="-7.55056" y1="54.3397" x2="103.011" y2="54.3397" gradientUnits="userSpaceOnUse">
<stop stop-color="#593F2C"/>
<stop offset="1" stop-color="#CD9E68"/>
</linearGradient>
<linearGradient id="paint1_linear_5235_260" x1="-7.55056" y1="54.3397" x2="103.011" y2="54.3397" gradientUnits="userSpaceOnUse">
<stop stop-color="#593F2C"/>
<stop offset="1" stop-color="#CD9E68"/>
</linearGradient>
</defs>
</svg>
