<svg width="96" height="96" viewBox="0 0 96 96" fill="none" xmlns="http://www.w3.org/2000/svg">
<path d="M0.0416395 47.9027C0.0416395 42.3084 -0.0394701 36.7309 0.0668213 31.1478C0.109352 26.5342 0.904877 21.9585 2.42201 17.6013C5.41495 9.23501 11.3729 4.08266 19.8342 1.72188C24.4411 0.437988 29.1487 -0.00116742 33.9123 0.00442687C44.2057 0.00442687 54.502 -0.0263417 64.7955 0.0743554C69.3394 0.0976235 73.8491 0.86292 78.1463 2.34003C86.6216 5.28822 91.8523 11.2377 94.2578 19.7914C95.3951 23.8997 95.9672 28.1438 95.9585 32.4065C95.9893 43.1923 96.0144 53.9781 95.9165 64.7611C95.9005 69.4044 95.1044 74.0121 93.5613 78.3916C90.5852 86.7187 84.6832 91.8738 76.2526 94.2485C71.6177 95.5548 66.871 95.9968 62.0739 95.9912C51.7776 95.9912 41.4841 96.0387 31.1906 95.9129C25.9348 95.8485 20.7741 94.973 15.8931 92.8863C8.40231 89.6836 3.89611 83.9355 1.72553 76.2014C0.574224 71.9527 -0.0015334 67.5686 0.0136749 63.1667C-0.0170937 58.0731 0.0136749 52.9767 0.0136749 47.8803L0.0416395 47.9027ZM6.75478 47.9027H6.71004C6.71004 52.9376 6.69325 57.9724 6.71004 62.9849C6.68957 66.8621 7.18719 70.7246 8.18972 74.47C9.93234 80.7579 13.7253 85.1635 19.9657 87.3201C23.6373 88.5767 27.489 89.2266 31.3697 89.2445C41.596 89.3284 51.8224 89.2976 62.0487 89.3116C65.9943 89.364 69.9311 88.9262 73.7687 88.0081C80.8847 86.2264 85.6342 81.9467 87.6957 74.8224C88.674 71.5033 89.187 68.0645 89.2202 64.6044C89.2789 53.5389 89.3516 42.4707 89.1754 31.408C89.1223 28.0961 88.5293 24.7312 87.7209 21.5061C86.0286 14.7482 81.7014 10.3511 74.9715 8.35949C71.5919 7.34522 68.0861 6.81225 64.5578 6.7763C54.3342 6.69798 44.1078 6.72316 33.8815 6.71197C29.7137 6.71197 25.5936 7.0896 21.5573 8.20007C14.9225 10.0266 10.4806 14.13 8.42749 20.7508C7.36155 24.1894 6.79632 27.7635 6.7492 31.3632C6.67927 36.8568 6.7408 42.3755 6.7408 47.9027H6.75478Z" fill="url(#paint0_linear_5235_259)"/>
<path d="M49.7608 50.1824L59.6739 40.2721C59.2767 40.2078 58.8124 40.163 58.362 40.0539C57.5937 39.864 56.9172 39.4087 56.4519 38.7685C55.9867 38.1282 55.7627 37.3441 55.8194 36.5547C55.9873 34.8764 57.2404 33.5617 58.8963 33.5226C61.9983 33.4471 65.1059 33.4163 68.208 33.4639C70.166 33.4946 71.4527 34.9575 71.4583 36.9491C71.4583 39.7071 71.4583 42.4641 71.4583 45.2203C71.4583 47.5223 70.2079 49.0188 68.2471 49.0831C66.1884 49.1474 64.8738 47.7601 64.7507 45.3937C64.7315 45.2846 64.7044 45.1771 64.6696 45.072C64.3591 45.3517 64.085 45.5979 63.8304 45.8552C59.9275 49.7507 56.0273 53.648 52.13 57.5472C50.0433 59.6283 47.8643 59.399 46.214 56.9347C44.7595 54.7622 43.305 52.5879 41.8505 50.4117C41.8141 50.3586 41.7414 50.3334 41.6099 50.2411C41.3554 50.4817 41.0785 50.7278 40.8183 50.988C37.3387 54.4648 33.8758 57.964 30.371 61.4157C28.3934 63.3737 25.3138 62.5597 24.6592 59.9668C24.5018 59.4251 24.4946 58.8508 24.6385 58.3054C24.7824 57.7599 25.0719 57.2639 25.476 56.8704C30.2731 52.0453 35.0674 47.2146 39.9177 42.4427C41.4869 40.8959 43.7721 41.2511 45.0616 43.1364C46.6448 45.4664 48.1888 47.8272 49.7608 50.1824Z" fill="url(#paint1_linear_5235_259)"/>
<defs>
<linearGradient id="paint0_linear_5235_259" x1="-7.54946" y1="55.0112" x2="102.996" y2="55.0112" gradientUnits="userSpaceOnUse">
<stop stop-color="#593F2C"/>
<stop offset="1" stop-color="#CD9E68"/>
</linearGradient>
<linearGradient id="paint1_linear_5235_259" x1="-7.54946" y1="55.0112" x2="102.996" y2="55.0112" gradientUnits="userSpaceOnUse">
<stop stop-color="#593F2C"/>
<stop offset="1" stop-color="#CD9E68"/>
</linearGradient>
</defs>
</svg>
