<svg width="96" height="96" viewBox="0 0 96 96" fill="none" xmlns="http://www.w3.org/2000/svg">
<path d="M0.0045663 54.8048C0.0045663 44.2255 0.0045663 33.642 0.0045663 23.0585C-0.0255987 22.3679 0.0939653 21.679 0.35504 21.039C0.616115 20.3989 1.01252 19.8229 1.51709 19.3505C7.49179 13.4233 13.4469 7.46812 19.3825 1.48505C19.8291 1.00063 20.3743 0.617596 20.9814 0.36174C21.5885 0.105884 22.2434 -0.0168362 22.902 0.00185536C37.0678 0.035374 51.2336 0.00185536 65.3994 0.00185536C70.046 0.00185536 73.6408 2.87188 74.5375 7.29634C74.6636 8.04785 74.7183 8.8096 74.7009 9.57141C74.7009 13.1872 74.7009 16.8031 74.7344 20.4189C74.763 20.9571 74.9761 21.469 75.3377 21.8686C76.5399 23.196 77.8321 24.4391 79.2049 25.5892C82.8627 28.4759 87.0567 29.4354 91.5649 28.2916C94.4308 27.5625 96.069 29.4689 95.9978 31.8487C95.8511 36.5874 95.9601 41.3345 95.9517 46.0942C95.9517 59.598 88.1963 70.6717 75.5137 75.2763C75.2435 75.3303 75.0049 75.4873 74.8485 75.7141C74.6921 75.9409 74.6301 76.2197 74.6757 76.4914C74.7092 79.8097 74.6967 83.1281 74.6757 86.4423C74.6757 92.1865 70.8714 95.9531 65.1145 95.9573H9.60765C3.82149 95.9573 0.017144 92.1446 0.0129541 86.3543C0.00736771 75.8378 0.0045663 65.3213 0.0045663 54.8048ZM6.0463 27.0179C6.02116 27.3405 5.99602 27.529 5.99602 27.7218C5.99602 47.3944 5.99602 67.0657 5.99602 86.7355C5.99602 88.7089 7.25298 89.9617 9.25572 89.9617C27.9982 89.9617 46.7407 89.9617 65.4832 89.9617C67.4692 89.9617 68.6926 88.7048 68.701 86.723C68.701 83.237 68.701 79.7553 68.701 76.2735C68.737 76.0354 68.6801 75.7926 68.5421 75.5953C68.404 75.398 68.1954 75.2613 67.9594 75.2135C55.6497 70.6885 47.8022 59.4472 47.7728 46.3037C47.7728 41.4602 47.7728 36.621 47.7728 31.7775C47.7728 28.8865 49.3314 27.6757 52.1219 28.3167C56.5044 29.3307 60.577 28.5723 64.176 25.8531C65.5883 24.7017 66.9171 23.4514 68.1522 22.1116C68.4715 21.7578 68.6543 21.3017 68.6675 20.8253C68.7094 17.0125 68.6968 13.1956 68.6885 9.38287C68.6885 7.14131 67.5027 5.98911 65.2235 5.98911H26.9954V7.24606C26.9954 10.732 27.0206 14.2138 26.9954 17.6955C26.9577 21.9566 24.5695 25.3545 20.7107 26.5235C19.595 26.8346 18.4417 26.9897 17.2834 26.9843C13.5964 27.043 9.88419 27.0179 6.05468 27.0179H6.0463ZM53.9361 34.723C53.8606 34.8235 53.8229 34.8529 53.8229 34.878C53.9319 40.1851 54.0422 45.4825 54.1539 50.77C56.1902 60.4611 61.8632 66.9051 71.3322 69.9636C71.7077 70.0788 72.109 70.0788 72.4844 69.9636C81.9032 66.8632 87.9156 60.4988 89.4742 50.6904C90.3122 45.5369 89.8345 40.1823 89.9435 34.9157C89.9435 34.857 89.889 34.8026 89.8136 34.6476C82.5736 35.2006 76.7455 32.2468 71.8644 26.8712C67.0419 32.4018 61.1342 35.142 53.9444 34.723H53.9361ZM20.9956 8.7167L8.80321 20.9468C8.94147 20.9468 9.19288 20.9971 9.44427 20.9971C12.1928 20.9971 14.9413 20.9971 17.6857 20.9971C19.8309 20.9971 21.004 19.8197 21.0375 17.6829C21.0375 15.1984 21.0375 12.718 21.0375 10.2334L20.9956 8.7167Z" fill="url(#paint0_linear_5235_258)"/>
<path d="M35.1573 74.9747C41.132 74.9747 47.1039 74.9747 53.073 74.9747C53.602 74.9544 54.1315 75.0022 54.6483 75.1171C55.2553 75.3085 55.7856 75.6882 56.1623 76.2013C56.539 76.7143 56.7424 77.334 56.7433 77.9704C56.738 78.6224 56.5198 79.2548 56.1219 79.7714C55.7241 80.288 55.1684 80.6604 54.5394 80.8321C54.1543 80.9279 53.7589 80.9757 53.3621 80.9745C41.2199 80.9745 29.0792 80.9745 16.9399 80.9745C14.8659 80.9745 13.5126 79.7176 13.5377 77.9034C13.544 77.1836 13.8147 76.4913 14.2983 75.9582C14.782 75.4251 15.4448 75.0885 16.1605 75.0124C16.5574 74.9753 16.9561 74.9614 17.3546 74.9705L35.1573 74.9747Z" fill="url(#paint1_linear_5235_258)"/>
<path d="M29.5848 67.9568H16.6466C16.0631 67.9902 15.4829 67.8485 14.9805 67.5499C14.4781 67.2513 14.0764 66.8093 13.8268 66.2808C13.5832 65.8226 13.4719 65.3056 13.5052 64.7877C13.5385 64.2697 13.7151 63.7713 14.0154 63.348C14.2954 62.9116 14.6839 62.5555 15.143 62.3146C15.6021 62.0737 16.1159 61.9562 16.634 61.9737C25.2567 61.9737 33.8808 61.9737 42.5062 61.9737C42.9146 61.9534 43.3227 62.0176 43.7051 62.1623C44.0875 62.3069 44.4359 62.529 44.7285 62.8145C45.0211 63.1 45.2516 63.4429 45.4056 63.8216C45.5596 64.2004 45.6338 64.6068 45.6235 65.0155C45.6025 66.6914 44.3456 67.9484 42.523 67.9484C38.2075 67.9777 33.8961 67.9568 29.5848 67.9568Z" fill="url(#paint2_linear_5235_258)"/>
<path d="M26.1114 54.9682C23.0277 54.9682 19.944 54.9682 16.8603 54.9682C14.8408 54.9682 13.5084 53.7616 13.5084 51.9599C13.5084 50.1583 14.8534 48.9893 16.7891 48.9852C23.085 48.9852 29.3851 48.9852 35.6894 48.9852C36.4444 48.9624 37.1804 49.2241 37.7516 49.7185C38.3227 50.2128 38.6873 50.9036 38.7731 51.6541C38.8439 52.3696 38.6564 53.0868 38.2445 53.6762C37.8327 54.2655 37.2236 54.6882 36.5274 54.8677C36.1374 54.9468 35.7392 54.9778 35.3416 54.9599C32.2663 54.9724 29.1952 54.9682 26.1114 54.9682Z" fill="url(#paint3_linear_5235_258)"/>
<path d="M26.145 36.005C29.2287 36.005 32.3124 36.005 35.3961 36.005C37.4407 36.005 38.7857 37.1824 38.8108 38.9379C38.8359 40.6935 37.4282 41.9797 35.3751 41.9797C29.1463 41.9797 22.9132 41.9797 16.6759 41.9797C15.9385 42.0137 15.2141 41.7769 14.6392 41.3139C14.0643 40.8508 13.6785 40.1936 13.5545 39.4658C13.4338 38.772 13.5667 38.0579 13.929 37.454C14.2914 36.8501 14.8589 36.3968 15.5279 36.1768C16.005 36.0445 16.4995 35.9852 16.9944 36.0008C20.0445 36.0008 23.0948 36.005 26.145 36.005Z" fill="url(#paint4_linear_5235_258)"/>
<path d="M69.1577 48.8008C71.5795 46.3749 73.8462 44.104 76.1171 41.8373C76.4439 41.5063 76.7623 41.1669 77.1058 40.8569C77.6616 40.3225 78.4026 40.024 79.1735 40.024C79.9445 40.024 80.6855 40.3225 81.2412 40.8569C81.5269 41.1229 81.7565 41.4433 81.9167 41.7992C82.077 42.1552 82.1645 42.5396 82.1743 42.9298C82.184 43.32 82.1158 43.7082 81.9736 44.0718C81.8313 44.4353 81.618 44.7667 81.346 45.0467C79.8209 46.6598 78.2203 48.2016 76.6534 49.7728C74.9774 51.4488 73.3308 53.1247 71.6633 54.7587C69.9957 56.3928 68.4078 56.3676 66.8114 54.7839C65.4288 53.4054 64.042 52.0228 62.6677 50.6359C61.2934 49.2491 61.2096 47.4642 62.4456 46.2157C63.6816 44.9671 65.5252 45.0509 66.8743 46.3832C67.6243 47.129 68.3281 47.9209 69.1577 48.8008Z" fill="url(#paint5_linear_5235_258)"/>
<defs>
<linearGradient id="paint0_linear_5235_258" x1="-7.55056" y1="54.9868" x2="103.011" y2="54.9868" gradientUnits="userSpaceOnUse">
<stop stop-color="#593F2C"/>
<stop offset="1" stop-color="#CD9E68"/>
</linearGradient>
<linearGradient id="paint1_linear_5235_258" x1="-7.55056" y1="54.9868" x2="103.011" y2="54.9868" gradientUnits="userSpaceOnUse">
<stop stop-color="#593F2C"/>
<stop offset="1" stop-color="#CD9E68"/>
</linearGradient>
<linearGradient id="paint2_linear_5235_258" x1="-7.55056" y1="54.9868" x2="103.011" y2="54.9868" gradientUnits="userSpaceOnUse">
<stop stop-color="#593F2C"/>
<stop offset="1" stop-color="#CD9E68"/>
</linearGradient>
<linearGradient id="paint3_linear_5235_258" x1="-7.55056" y1="54.9868" x2="103.011" y2="54.9868" gradientUnits="userSpaceOnUse">
<stop stop-color="#593F2C"/>
<stop offset="1" stop-color="#CD9E68"/>
</linearGradient>
<linearGradient id="paint4_linear_5235_258" x1="-7.55056" y1="54.9868" x2="103.011" y2="54.9868" gradientUnits="userSpaceOnUse">
<stop stop-color="#593F2C"/>
<stop offset="1" stop-color="#CD9E68"/>
</linearGradient>
<linearGradient id="paint5_linear_5235_258" x1="-7.55056" y1="54.9868" x2="103.011" y2="54.9868" gradientUnits="userSpaceOnUse">
<stop stop-color="#593F2C"/>
<stop offset="1" stop-color="#CD9E68"/>
</linearGradient>
</defs>
</svg>
